<svg height="235" viewBox="0 0 348 235" width="348" xmlns="http://www.w3.org/2000/svg"><g fill="none" fill-rule="evenodd"><g fill="#e1612b" transform="translate(-133 116)"><path d="m221.5 237c-3.589851 0-6.5-2.910149-6.5-6.5s2.910149-6.5 6.5-6.5 6.5 2.910149 6.5 6.5-2.910149 6.5-6.5 6.5zm0-45c-3.589851 0-6.5-2.910149-6.5-6.5s2.910149-6.5 6.5-6.5 6.5 2.910149 6.5 6.5-2.910149 6.5-6.5 6.5zm0-45c-3.589851 0-6.5-2.910149-6.5-6.5s2.910149-6.5 6.5-6.5 6.5 2.910149 6.5 6.5-2.910149 6.5-6.5 6.5zm0-44c-3.589851 0-6.5-2.910149-6.5-6.5 0-3.5898509 2.910149-6.5 6.5-6.5s6.5 2.9101491 6.5 6.5c0 3.589851-2.910149 6.5-6.5 6.5zm0-45c-3.589851 0-6.5-2.9101491-6.5-6.5s2.910149-6.5 6.5-6.5 6.5 2.9101491 6.5 6.5-2.910149 6.5-6.5 6.5zm0-45c-3.589851 0-6.5-2.9101491-6.5-6.5 0-3.58985087 2.910149-6.5 6.5-6.5s6.5 2.91014913 6.5 6.5c0 3.5898509-2.910149 6.5-6.5 6.5zm-43 224c-3.589851 0-6.5-2.910149-6.5-6.5s2.910149-6.5 6.5-6.5 6.5 2.910149 6.5 6.5-2.910149 6.5-6.5 6.5zm0-45c-3.589851 0-6.5-2.910149-6.5-6.5s2.910149-6.5 6.5-6.5 6.5 2.910149 6.5 6.5-2.910149 6.5-6.5 6.5zm0-45c-3.589851 0-6.5-2.910149-6.5-6.5s2.910149-6.5 6.5-6.5 6.5 2.910149 6.5 6.5-2.910149 6.5-6.5 6.5zm0-44c-3.589851 0-6.5-2.910149-6.5-6.5 0-3.5898509 2.910149-6.5 6.5-6.5s6.5 2.9101491 6.5 6.5c0 3.589851-2.910149 6.5-6.5 6.5zm0-45c-3.589851 0-6.5-2.9101491-6.5-6.5s2.910149-6.5 6.5-6.5 6.5 2.9101491 6.5 6.5-2.910149 6.5-6.5 6.5zm0-45c-3.589851 0-6.5-2.9101491-6.5-6.5 0-3.58985087 2.910149-6.5 6.5-6.5s6.5 2.91014913 6.5 6.5c0 3.5898509-2.910149 6.5-6.5 6.5zm-42 224c-3.589851 0-6.5-2.910149-6.5-6.5s2.910149-6.5 6.5-6.5 6.5 2.910149 6.5 6.5-2.910149 6.5-6.5 6.5zm0-45c-3.589851 0-6.5-2.910149-6.5-6.5s2.910149-6.5 6.5-6.5 6.5 2.910149 6.5 6.5-2.910149 6.5-6.5 6.5zm0-45c-3.589851 0-6.5-2.910149-6.5-6.5s2.910149-6.5 6.5-6.5 6.5 2.910149 6.5 6.5-2.910149 6.5-6.5 6.5zm0-44c-3.589851 0-6.5-2.910149-6.5-6.5 0-3.5898509 2.910149-6.5 6.5-6.5s6.5 2.9101491 6.5 6.5c0 3.589851-2.910149 6.5-6.5 6.5zm0-45c-3.589851 0-6.5-2.9101491-6.5-6.5s2.910149-6.5 6.5-6.5 6.5 2.9101491 6.5 6.5-2.910149 6.5-6.5 6.5zm0-45c-3.589851 0-6.5-2.9101491-6.5-6.5 0-3.58985087 2.910149-6.5 6.5-6.5s6.5 2.91014913 6.5 6.5c0 3.5898509-2.910149 6.5-6.5 6.5zm-45 224c-3.5898509 0-6.5-2.910149-6.5-6.5s2.9101491-6.5 6.5-6.5 6.5 2.910149 6.5 6.5-2.9101491 6.5-6.5 6.5zm0-45c-3.5898509 0-6.5-2.910149-6.5-6.5s2.9101491-6.5 6.5-6.5 6.5 2.910149 6.5 6.5-2.9101491 6.5-6.5 6.5zm0-45c-3.5898509 0-6.5-2.910149-6.5-6.5s2.9101491-6.5 6.5-6.5 6.5 2.910149 6.5 6.5-2.9101491 6.5-6.5 6.5zm0-44c-3.5898509 0-6.5-2.910149-6.5-6.5 0-3.5898509 2.9101491-6.5 6.5-6.5s6.5 2.9101491 6.5 6.5c0 3.589851-2.9101491 6.5-6.5 6.5zm0-45c-3.5898509 0-6.5-2.9101491-6.5-6.5s2.9101491-6.5 6.5-6.5 6.5 2.9101491 6.5 6.5-2.9101491 6.5-6.5 6.5zm0-45c-3.5898509 0-6.5-2.9101491-6.5-6.5 0-3.58985087 2.9101491-6.5 6.5-6.5s6.5 2.91014913 6.5 6.5c0 3.5898509-2.9101491 6.5-6.5 6.5zm-42 224c-3.5898509 0-6.5-2.910149-6.5-6.5s2.9101491-6.5 6.5-6.5 6.5 2.910149 6.5 6.5-2.9101491 6.5-6.5 6.5zm0-45c-3.5898509 0-6.5-2.910149-6.5-6.5s2.9101491-6.5 6.5-6.5 6.5 2.910149 6.5 6.5-2.9101491 6.5-6.5 6.5zm0-45c-3.5898509 0-6.5-2.910149-6.5-6.5s2.9101491-6.5 6.5-6.5 6.5 2.910149 6.5 6.5-2.9101491 6.5-6.5 6.5zm0-44c-3.5898509 0-6.5-2.910149-6.5-6.5 0-3.5898509 2.9101491-6.5 6.5-6.5s6.5 2.9101491 6.5 6.5c0 3.589851-2.9101491 6.5-6.5 6.5zm0-45c-3.5898509 0-6.5-2.9101491-6.5-6.5s2.9101491-6.5 6.5-6.5 6.5 2.9101491 6.5 6.5-2.9101491 6.5-6.5 6.5zm0-45c-3.5898509 0-6.5-2.9101491-6.5-6.5 0-3.58985087 2.9101491-6.5 6.5-6.5s6.5 2.91014913 6.5 6.5c0 3.5898509-2.9101491 6.5-6.5 6.5zm-43 224c-3.58985087 0-6.5-2.910149-6.5-6.5s2.91014913-6.5 6.5-6.5c3.5898509 0 6.5 2.910149 6.5 6.5s-2.9101491 6.5-6.5 6.5zm0-45c-3.58985087 0-6.5-2.910149-6.5-6.5s2.91014913-6.5 6.5-6.5c3.5898509 0 6.5 2.910149 6.5 6.5s-2.9101491 6.5-6.5 6.5zm0-45c-3.58985087 0-6.5-2.910149-6.5-6.5s2.91014913-6.5 6.5-6.5c3.5898509 0 6.5 2.910149 6.5 6.5s-2.9101491 6.5-6.5 6.5zm0-44c-3.58985087 0-6.5-2.910149-6.5-6.5 0-3.5898509 2.91014913-6.5 6.5-6.5 3.5898509 0 6.5 2.9101491 6.5 6.5 0 3.589851-2.9101491 6.5-6.5 6.5zm0-45c-3.58985087 0-6.5-2.9101491-6.5-6.5s2.91014913-6.5 6.5-6.5c3.5898509 0 6.5 2.9101491 6.5 6.5s-2.9101491 6.5-6.5 6.5zm0-45c-3.58985087 0-6.5-2.9101491-6.5-6.5 0-3.58985087 2.91014913-6.5 6.5-6.5 3.5898509 0 6.5 2.91014913 6.5 6.5 0 3.5898509-2.9101491 6.5-6.5 6.5z" transform="matrix(-1 0 0 -1 228 237)"/><path d="m474.5 237c-3.589851 0-6.5-2.910149-6.5-6.5s2.910149-6.5 6.5-6.5 6.5 2.910149 6.5 6.5-2.910149 6.5-6.5 6.5zm0-45c-3.589851 0-6.5-2.910149-6.5-6.5s2.910149-6.5 6.5-6.5 6.5 2.910149 6.5 6.5-2.910149 6.5-6.5 6.5zm0-45c-3.589851 0-6.5-2.910149-6.5-6.5s2.910149-6.5 6.5-6.5 6.5 2.910149 6.5 6.5-2.910149 6.5-6.5 6.5zm0-44c-3.589851 0-6.5-2.910149-6.5-6.5 0-3.5898509 2.910149-6.5 6.5-6.5s6.5 2.9101491 6.5 6.5c0 3.589851-2.910149 6.5-6.5 6.5zm0-45c-3.589851 0-6.5-2.9101491-6.5-6.5s2.910149-6.5 6.5-6.5 6.5 2.9101491 6.5 6.5-2.910149 6.5-6.5 6.5zm0-45c-3.589851 0-6.5-2.9101491-6.5-6.5 0-3.58985087 2.910149-6.5 6.5-6.5s6.5 2.91014913 6.5 6.5c0 3.5898509-2.910149 6.5-6.5 6.5zm-43 224c-3.589851 0-6.5-2.910149-6.5-6.5s2.910149-6.5 6.5-6.5 6.5 2.910149 6.5 6.5-2.910149 6.5-6.5 6.5zm0-45c-3.589851 0-6.5-2.910149-6.5-6.5s2.910149-6.5 6.5-6.5 6.5 2.910149 6.5 6.5-2.910149 6.5-6.5 6.5zm0-45c-3.589851 0-6.5-2.910149-6.5-6.5s2.910149-6.5 6.5-6.5 6.5 2.910149 6.5 6.5-2.910149 6.5-6.5 6.5zm0-44c-3.589851 0-6.5-2.910149-6.5-6.5 0-3.5898509 2.910149-6.5 6.5-6.5s6.5 2.9101491 6.5 6.5c0 3.589851-2.910149 6.5-6.5 6.5zm0-45c-3.589851 0-6.5-2.9101491-6.5-6.5s2.910149-6.5 6.5-6.5 6.5 2.9101491 6.5 6.5-2.910149 6.5-6.5 6.5zm0-45c-3.589851 0-6.5-2.9101491-6.5-6.5 0-3.58985087 2.910149-6.5 6.5-6.5s6.5 2.91014913 6.5 6.5c0 3.5898509-2.910149 6.5-6.5 6.5zm-42 224c-3.589851 0-6.5-2.910149-6.5-6.5s2.910149-6.5 6.5-6.5 6.5 2.910149 6.5 6.5-2.910149 6.5-6.5 6.5zm0-45c-3.589851 0-6.5-2.910149-6.5-6.5s2.910149-6.5 6.5-6.5 6.5 2.910149 6.5 6.5-2.910149 6.5-6.5 6.5zm0-45c-3.589851 0-6.5-2.910149-6.5-6.5s2.910149-6.5 6.5-6.5 6.5 2.910149 6.5 6.5-2.910149 6.5-6.5 6.5zm0-44c-3.589851 0-6.5-2.910149-6.5-6.5 0-3.5898509 2.910149-6.5 6.5-6.5s6.5 2.9101491 6.5 6.5c0 3.589851-2.910149 6.5-6.5 6.5zm0-45c-3.589851 0-6.5-2.9101491-6.5-6.5s2.910149-6.5 6.5-6.5 6.5 2.9101491 6.5 6.5-2.910149 6.5-6.5 6.5zm0-45c-3.589851 0-6.5-2.9101491-6.5-6.5 0-3.58985087 2.910149-6.5 6.5-6.5s6.5 2.91014913 6.5 6.5c0 3.5898509-2.910149 6.5-6.5 6.5zm-45 224c-3.589851 0-6.5-2.910149-6.5-6.5s2.910149-6.5 6.5-6.5 6.5 2.910149 6.5 6.5-2.910149 6.5-6.5 6.5zm0-45c-3.589851 0-6.5-2.910149-6.5-6.5s2.910149-6.5 6.5-6.5 6.5 2.910149 6.5 6.5-2.910149 6.5-6.5 6.5zm0-45c-3.589851 0-6.5-2.910149-6.5-6.5s2.910149-6.5 6.5-6.5 6.5 2.910149 6.5 6.5-2.910149 6.5-6.5 6.5zm0-44c-3.589851 0-6.5-2.910149-6.5-6.5 0-3.5898509 2.910149-6.5 6.5-6.5s6.5 2.9101491 6.5 6.5c0 3.589851-2.910149 6.5-6.5 6.5zm0-45c-3.589851 0-6.5-2.9101491-6.5-6.5s2.910149-6.5 6.5-6.5 6.5 2.9101491 6.5 6.5-2.910149 6.5-6.5 6.5zm0-45c-3.589851 0-6.5-2.9101491-6.5-6.5 0-3.58985087 2.910149-6.5 6.5-6.5s6.5 2.91014913 6.5 6.5c0 3.5898509-2.910149 6.5-6.5 6.5zm-42 224c-3.589851 0-6.5-2.910149-6.5-6.5s2.910149-6.5 6.5-6.5 6.5 2.910149 6.5 6.5-2.910149 6.5-6.5 6.5zm0-45c-3.589851 0-6.5-2.910149-6.5-6.5s2.910149-6.5 6.5-6.5 6.5 2.910149 6.5 6.5-2.910149 6.5-6.5 6.5zm0-45c-3.589851 0-6.5-2.910149-6.5-6.5s2.910149-6.5 6.5-6.5 6.5 2.910149 6.5 6.5-2.910149 6.5-6.5 6.5zm0-44c-3.589851 0-6.5-2.910149-6.5-6.5 0-3.5898509 2.910149-6.5 6.5-6.5s6.5 2.9101491 6.5 6.5c0 3.589851-2.910149 6.5-6.5 6.5zm0-45c-3.589851 0-6.5-2.9101491-6.5-6.5s2.910149-6.5 6.5-6.5 6.5 2.9101491 6.5 6.5-2.910149 6.5-6.5 6.5zm0-45c-3.589851 0-6.5-2.9101491-6.5-6.5 0-3.58985087 2.910149-6.5 6.5-6.5s6.5 2.91014913 6.5 6.5c0 3.5898509-2.910149 6.5-6.5 6.5zm-43 224c-3.589851 0-6.5-2.910149-6.5-6.5s2.910149-6.5 6.5-6.5 6.5 2.910149 6.5 6.5-2.910149 6.5-6.5 6.5zm0-45c-3.589851 0-6.5-2.910149-6.5-6.5s2.910149-6.5 6.5-6.5 6.5 2.910149 6.5 6.5-2.910149 6.5-6.5 6.5zm0-45c-3.589851 0-6.5-2.910149-6.5-6.5s2.910149-6.5 6.5-6.5 6.5 2.910149 6.5 6.5-2.910149 6.5-6.5 6.5zm0-44c-3.589851 0-6.5-2.910149-6.5-6.5 0-3.5898509 2.910149-6.5 6.5-6.5s6.5 2.9101491 6.5 6.5c0 3.589851-2.910149 6.5-6.5 6.5zm0-45c-3.589851 0-6.5-2.9101491-6.5-6.5s2.910149-6.5 6.5-6.5 6.5 2.9101491 6.5 6.5-2.910149 6.5-6.5 6.5zm0-45c-3.589851 0-6.5-2.9101491-6.5-6.5 0-3.58985087 2.910149-6.5 6.5-6.5s6.5 2.91014913 6.5 6.5c0 3.5898509-2.910149 6.5-6.5 6.5z" transform="matrix(-1 0 0 -1 734 237)"/></g><circle cx="44" cy="201" r="198" stroke="#eeecec" stroke-width="6"/></g></svg>